<svg width="32" height="32" viewBox="0 0 32 32" fill="none" xmlns="http://www.w3.org/2000/svg">
<path d="M15.9703 9.85005C16.7435 9.85005 17.3703 9.22325 17.3703 8.45005C17.3703 7.67685 16.7435 7.05005 15.9703 7.05005C15.1971 7.05005 14.5703 7.67685 14.5703 8.45005C14.5703 9.22325 15.1971 9.85005 15.9703 9.85005Z" fill="#0BAEE6"/>
<path d="M19 23.0001H17V12.1001H14C13.7348 12.1001 13.4804 12.2055 13.2929 12.393C13.1054 12.5805 13 12.8349 13 13.1001C13 13.3653 13.1054 13.6197 13.2929 13.8072C13.4804 13.9947 13.7348 14.1001 14 14.1001H15V23.0001H13C12.7348 23.0001 12.4804 23.1055 12.2929 23.293C12.1054 23.4805 12 23.7349 12 24.0001C12 24.2653 12.1054 24.5197 12.2929 24.7072C12.4804 24.8947 12.7348 25.0001 13 25.0001H19C19.2652 25.0001 19.5196 24.8947 19.7071 24.7072C19.8946 24.5197 20 24.2653 20 24.0001C20 23.7349 19.8946 23.4805 19.7071 23.293C19.5196 23.1055 19.2652 23.0001 19 23.0001Z" fill="#0BAEE6"/>
<path d="M16 32C12.8355 32 9.74207 31.0616 7.11088 29.3035C4.4797 27.5454 2.42894 25.0466 1.21793 22.1229C0.0069325 19.1993 -0.309921 15.9823 0.307443 12.8786C0.924806 9.77487 2.44866 6.92394 4.6863 4.6863C6.92394 2.44866 9.77487 0.924806 12.8786 0.307443C15.9823 -0.309921 19.1993 0.0069325 22.1229 1.21793C25.0466 2.42894 27.5454 4.4797 29.3035 7.11088C31.0616 9.74207 32 12.8355 32 16C32 20.2435 30.3143 24.3131 27.3137 27.3137C24.3131 30.3143 20.2435 32 16 32V32ZM16 2.00001C13.2311 2.00001 10.5243 2.82109 8.22202 4.35943C5.91974 5.89777 4.12532 8.08427 3.06569 10.6424C2.00607 13.2006 1.72882 16.0155 2.26901 18.7313C2.80921 21.447 4.14258 23.9416 6.10051 25.8995C8.05845 27.8574 10.553 29.1908 13.2687 29.731C15.9845 30.2712 18.7994 29.9939 21.3576 28.9343C23.9157 27.8747 26.1022 26.0803 27.6406 23.778C29.1789 21.4757 30 18.7689 30 16C30 12.287 28.525 8.72602 25.8995 6.10051C23.274 3.475 19.713 2.00001 16 2.00001V2.00001Z" fill="#0BAEE6"/>
</svg>
