<svg width="25" height="30" viewBox="0 0 25 30" fill="none" xmlns="http://www.w3.org/2000/svg">
<path d="M16.6667 26.9789L13.9687 24.204L12.5 25.7146L16.6667 30.0002L25 21.4291L23.5312 19.9185L16.6667 26.9789Z" fill="#F4863A"/>
<path d="M9.375 27.8563H2.08333V2.14313H10.4167V8.57143C10.4183 9.1392 10.6383 9.68324 11.0287 10.0847C11.419 10.4862 11.948 10.7125 12.5 10.7142H18.75V17.1425H20.8333V8.57143C20.837 8.43062 20.811 8.29067 20.757 8.1612C20.7031 8.03174 20.6225 7.91583 20.5208 7.82146L13.2292 0.321779C13.1375 0.217153 13.0248 0.134234 12.8989 0.0787436C12.773 0.0232531 12.6369 -0.00348824 12.5 0.000364313H2.08333C1.53131 0.00206002 1.00236 0.22836 0.612015 0.629839C0.221672 1.03132 0.00164867 1.57536 0 2.14313V27.8563C0.00164867 28.4241 0.221672 28.9681 0.612015 29.3696C1.00236 29.7711 1.53131 29.9974 2.08333 29.9991H9.375V27.8563ZM12.5 2.57168L18.3333 8.57143H12.5V2.57168Z" fill="#F4863A"/>
</svg>
