<svg width="50" height="50" viewBox="0 0 50 50" fill="none" xmlns="http://www.w3.org/2000/svg">
<path d="M9.375 13.4614C9.375 12.9514 9.53962 12.4622 9.83265 12.1016C10.1257 11.7409 10.5231 11.5383 10.9375 11.5383H32.8125C33.2269 11.5383 33.6243 11.7409 33.9174 12.1016C34.2104 12.4622 34.375 12.9514 34.375 13.4614C34.375 13.9714 34.2104 14.4606 33.9174 14.8212C33.6243 15.1819 33.2269 15.3845 32.8125 15.3845H10.9375C10.5231 15.3845 10.1257 15.1819 9.83265 14.8212C9.53962 14.4606 9.375 13.9714 9.375 13.4614Z" fill="#0BAEE6"/>
<path d="M26.5635 23.0771C26.1491 23.0771 25.7516 23.2798 25.4586 23.6404C25.1656 24.001 25.001 24.4902 25.001 25.0002C25.001 25.5103 25.1656 25.9994 25.4586 26.36C25.7516 26.7207 26.1491 26.9233 26.5635 26.9233H32.8135C33.2279 26.9233 33.6253 26.7207 33.9183 26.36C34.2114 25.9994 34.376 25.5103 34.376 25.0002C34.376 24.4902 34.2114 24.001 33.9183 23.6404C33.6253 23.2798 33.2279 23.0771 32.8135 23.0771H26.5635Z" fill="#0BAEE6"/>
<path d="M25.001 36.5386C25.001 36.0285 25.1656 35.5394 25.4586 35.1787C25.7516 34.8181 26.1491 34.6155 26.5635 34.6155H32.8135C33.2279 34.6155 33.6253 34.8181 33.9183 35.1787C34.2114 35.5394 34.376 36.0285 34.376 36.5386C34.376 37.0486 34.2114 37.5377 33.9183 37.8984C33.6253 38.259 33.2279 38.4616 32.8135 38.4616H26.5635C26.1491 38.4616 25.7516 38.259 25.4586 37.8984C25.1656 37.5377 25.001 37.0486 25.001 36.5386Z" fill="#0BAEE6"/>
<path d="M10.9375 23.0771C10.5231 23.0771 10.1257 23.2798 9.83265 23.6404C9.53962 24.001 9.375 24.4902 9.375 25.0002V36.5387C9.375 37.0487 9.53962 37.5379 9.83265 37.8985C10.1257 38.2592 10.5231 38.4618 10.9375 38.4618H20.3125C20.7269 38.4618 21.1243 38.2592 21.4174 37.8985C21.7104 37.5379 21.875 37.0487 21.875 36.5387V25.0002C21.875 24.4902 21.7104 24.001 21.4174 23.6404C21.1243 23.2798 20.7269 23.0771 20.3125 23.0771H10.9375ZM12.5 34.6156V26.9233H18.75V34.6156H12.5Z" fill="#0BAEE6"/>
<path d="M0 7.69231C0 5.65218 0.65848 3.69561 1.83058 2.25302C3.00268 0.810437 4.5924 0 6.25 0H37.5C39.1576 0 40.7473 0.810437 41.9194 2.25302C43.0915 3.69561 43.75 5.65218 43.75 7.69231V11.5385C45.4076 11.5385 46.9973 12.3489 48.1694 13.7915C49.3415 15.2341 50 17.1906 50 19.2308V40.3846C50 42.9348 49.1769 45.3805 47.7118 47.1837C46.2466 48.987 44.2595 50 42.1875 50H7.8125C5.7405 50 3.75336 48.987 2.28823 47.1837C0.8231 45.3805 0 42.9348 0 40.3846V7.69231ZM40.625 7.69231C40.625 6.67224 40.2958 5.69396 39.7097 4.97267C39.1237 4.25137 38.3288 3.84615 37.5 3.84615H6.25C5.4212 3.84615 4.62634 4.25137 4.04029 4.97267C3.45424 5.69396 3.125 6.67224 3.125 7.69231V40.3846C3.125 41.9147 3.61886 43.3821 4.49794 44.4641C5.37701 45.546 6.5693 46.1538 7.8125 46.1538H42.1875C43.4307 46.1538 44.623 45.546 45.5021 44.4641C46.3811 43.3821 46.875 41.9147 46.875 40.3846V19.2308C46.875 18.2107 46.5458 17.2324 45.9597 16.5111C45.3737 15.7898 44.5788 15.3846 43.75 15.3846V40.3846C43.75 40.8946 43.5854 41.3838 43.2924 41.7444C42.9993 42.1051 42.6019 42.3077 42.1875 42.3077C41.7731 42.3077 41.3757 42.1051 41.0826 41.7444C40.7896 41.3838 40.625 40.8946 40.625 40.3846V7.69231Z" fill="#0BAEE6"/>
</svg>
