<svg width="300" height="250" viewBox="0 0 300 250" fill="none" xmlns="http://www.w3.org/2000/svg">
<rect x="300" width="250" height="300" transform="rotate(90 300 0)" fill="#F8F8F8"/>
<path d="M107.523 133V115.938H113.5C115.57 115.938 117.141 116.336 118.211 117.133C119.281 117.922 119.816 119.082 119.816 120.613C119.816 121.449 119.602 122.188 119.172 122.828C118.742 123.461 118.145 123.926 117.379 124.223C118.254 124.441 118.941 124.883 119.441 125.547C119.949 126.211 120.203 127.023 120.203 127.984C120.203 129.625 119.68 130.867 118.633 131.711C117.586 132.555 116.094 132.984 114.156 133H107.523ZM111.039 125.57V130.176H114.051C114.879 130.176 115.523 129.98 115.984 129.59C116.453 129.191 116.688 128.645 116.688 127.949C116.688 126.387 115.879 125.594 114.262 125.57H111.039ZM111.039 123.086H113.641C115.414 123.055 116.301 122.348 116.301 120.965C116.301 120.191 116.074 119.637 115.621 119.301C115.176 118.957 114.469 118.785 113.5 118.785H111.039V123.086ZM122.102 126.543C122.102 125.285 122.344 124.164 122.828 123.18C123.312 122.195 124.008 121.434 124.914 120.895C125.828 120.355 126.887 120.086 128.09 120.086C129.801 120.086 131.195 120.609 132.273 121.656C133.359 122.703 133.965 124.125 134.09 125.922L134.113 126.789C134.113 128.734 133.57 130.297 132.484 131.477C131.398 132.648 129.941 133.234 128.113 133.234C126.285 133.234 124.824 132.648 123.73 131.477C122.645 130.305 122.102 128.711 122.102 126.695V126.543ZM125.488 126.789C125.488 127.992 125.715 128.914 126.168 129.555C126.621 130.188 127.27 130.504 128.113 130.504C128.934 130.504 129.574 130.191 130.035 129.566C130.496 128.934 130.727 127.926 130.727 126.543C130.727 125.363 130.496 124.449 130.035 123.801C129.574 123.152 128.926 122.828 128.09 122.828C127.262 122.828 126.621 123.152 126.168 123.801C125.715 124.441 125.488 125.438 125.488 126.789ZM135.672 126.543C135.672 125.285 135.914 124.164 136.398 123.18C136.883 122.195 137.578 121.434 138.484 120.895C139.398 120.355 140.457 120.086 141.66 120.086C143.371 120.086 144.766 120.609 145.844 121.656C146.93 122.703 147.535 124.125 147.66 125.922L147.684 126.789C147.684 128.734 147.141 130.297 146.055 131.477C144.969 132.648 143.512 133.234 141.684 133.234C139.855 133.234 138.395 132.648 137.301 131.477C136.215 130.305 135.672 128.711 135.672 126.695V126.543ZM139.059 126.789C139.059 127.992 139.285 128.914 139.738 129.555C140.191 130.188 140.84 130.504 141.684 130.504C142.504 130.504 143.145 130.191 143.605 129.566C144.066 128.934 144.297 127.926 144.297 126.543C144.297 125.363 144.066 124.449 143.605 123.801C143.145 123.152 142.496 122.828 141.66 122.828C140.832 122.828 140.191 123.152 139.738 123.801C139.285 124.441 139.059 125.438 139.059 126.789ZM154.375 127.914L153.156 129.133V133H149.77V115H153.156V124.973L153.812 124.129L157.059 120.32H161.125L156.543 125.605L161.523 133H157.633L154.375 127.914ZM166.164 133H162.766V120.32H166.164V133ZM162.566 117.039C162.566 116.531 162.734 116.113 163.07 115.785C163.414 115.457 163.879 115.293 164.465 115.293C165.043 115.293 165.504 115.457 165.848 115.785C166.191 116.113 166.363 116.531 166.363 117.039C166.363 117.555 166.188 117.977 165.836 118.305C165.492 118.633 165.035 118.797 164.465 118.797C163.895 118.797 163.434 118.633 163.082 118.305C162.738 117.977 162.566 117.555 162.566 117.039ZM172.082 120.32L172.188 121.785C173.094 120.652 174.309 120.086 175.832 120.086C177.176 120.086 178.176 120.48 178.832 121.27C179.488 122.059 179.824 123.238 179.84 124.809V133H176.453V124.891C176.453 124.172 176.297 123.652 175.984 123.332C175.672 123.004 175.152 122.84 174.426 122.84C173.473 122.84 172.758 123.246 172.281 124.059V133H168.895V120.32H172.082ZM181.926 126.566C181.926 124.621 182.387 123.055 183.309 121.867C184.238 120.68 185.488 120.086 187.059 120.086C188.449 120.086 189.531 120.562 190.305 121.516L190.445 120.32H193.516V132.578C193.516 133.688 193.262 134.652 192.754 135.473C192.254 136.293 191.547 136.918 190.633 137.348C189.719 137.777 188.648 137.992 187.422 137.992C186.492 137.992 185.586 137.805 184.703 137.43C183.82 137.062 183.152 136.586 182.699 136L184.199 133.938C185.043 134.883 186.066 135.355 187.27 135.355C188.168 135.355 188.867 135.113 189.367 134.629C189.867 134.152 190.117 133.473 190.117 132.59V131.91C189.336 132.793 188.309 133.234 187.035 133.234C185.512 133.234 184.277 132.641 183.332 131.453C182.395 130.258 181.926 128.676 181.926 126.707V126.566ZM185.312 126.812C185.312 127.961 185.543 128.863 186.004 129.52C186.465 130.168 187.098 130.492 187.902 130.492C188.934 130.492 189.672 130.105 190.117 129.332V124C189.664 123.227 188.934 122.84 187.926 122.84C187.113 122.84 186.473 123.172 186.004 123.836C185.543 124.5 185.312 125.492 185.312 126.812Z" fill="#C4C4C4"/>
</svg>
