<svg width="31" height="31" viewBox="0 0 31 31" fill="none" xmlns="http://www.w3.org/2000/svg">
<path d="M19.25 23.6112C19.25 23.8617 19.1534 24.102 18.9815 24.2791C18.8096 24.4562 18.5764 24.5557 18.3333 24.5557H5.5C5.29833 24.5557 5.10583 24.7446 4.94083 24.8674L1.83333 27.389V12.2779C1.83333 12.0274 1.92991 11.7872 2.10182 11.6101C2.27373 11.433 2.50688 11.3335 2.75 11.3335H6.28833V9.44458H2.75C2.02065 9.44458 1.32118 9.74309 0.805456 10.2744C0.289731 10.8058 0 11.5265 0 12.2779V29.2779C0.00136428 29.4533 0.0501114 29.6249 0.140778 29.7733C0.231445 29.9218 0.360449 30.0413 0.513333 30.1185C0.660622 30.1875 0.823017 30.2151 0.984018 30.1985C1.14502 30.1819 1.29889 30.1217 1.43 30.024L6.15083 26.4446H18.4708C18.8183 26.4552 19.1641 26.3921 19.4869 26.2594C19.8097 26.1267 20.1027 25.9271 20.3476 25.673C20.5925 25.4189 20.7842 25.1157 20.9107 24.7822C21.0373 24.4486 21.096 24.0919 21.0833 23.734V22.6668H19.25V23.6112Z" fill="#8B6940"/>
<path d="M27.5 11.5413V20.7213L24.2917 18.1429C24.1317 18.015 23.935 17.9453 23.7325 17.9446H11C10.7569 17.9446 10.5237 17.8451 10.3518 17.668C10.1799 17.4909 10.0833 17.2506 10.0833 17.0002V5.66683C10.0833 5.41635 10.1799 5.17612 10.3518 4.99901C10.5237 4.82189 10.7569 4.72238 11 4.72238H18.7917C18.7941 4.0837 18.8804 3.4483 19.0483 2.8335H11C10.2707 2.8335 9.57118 3.13201 9.05546 3.66336C8.53973 4.19471 8.25 4.91538 8.25 5.66683V17.0002C8.25 17.7516 8.53973 18.4723 9.05546 19.0036C9.57118 19.535 10.2707 19.8335 11 19.8335H23.4208L27.8025 23.3374C27.9328 23.4366 28.0862 23.4985 28.2472 23.5167C28.4083 23.535 28.5711 23.509 28.7192 23.4413C28.8752 23.3647 29.007 23.2443 29.0994 23.0939C29.1919 22.9435 29.2412 22.7693 29.2417 22.5913V10.7385C28.7004 11.0887 28.1142 11.359 27.5 11.5413Z" fill="#8B6940"/>
<path d="M25.6673 9.44444C28.1986 9.44444 30.2507 7.33023 30.2507 4.72222C30.2507 2.11421 28.1986 0 25.6673 0C23.136 0 21.084 2.11421 21.084 4.72222C21.084 7.33023 23.136 9.44444 25.6673 9.44444Z" fill="#8B6940"/>
</svg>
