<svg width="26" height="31" viewBox="0 0 26 31" fill="none" xmlns="http://www.w3.org/2000/svg">
<path d="M12.3158 31V26.0598C5.46 25.703 0 19.9942 0 13.0367C0 5.84595 5.82947 0 13 0C20.1705 0 26 5.84595 26 13.0367C26 19.8296 21.2926 26.6636 14.2726 30.0531L12.3158 31ZM13 2.74458C7.33474 2.74458 2.73684 7.35547 2.73684 13.0367C2.73684 18.718 7.33474 23.3289 13 23.3289H15.0526V26.4852C20.0337 23.3289 23.2632 18.1417 23.2632 13.0367C23.2632 7.35547 18.6653 2.74458 13 2.74458ZM11.6316 18.5259H14.3684V21.2705H11.6316V18.5259ZM14.3684 16.4675H11.6316C11.6316 12.0075 15.7368 12.3506 15.7368 9.60602C15.7368 8.0965 14.5053 6.86144 13 6.86144C11.4947 6.86144 10.2632 8.0965 10.2632 9.60602H7.52632C7.52632 6.57326 9.97579 4.11687 13 4.11687C16.0242 4.11687 18.4737 6.57326 18.4737 9.60602C18.4737 13.0367 14.3684 13.3798 14.3684 16.4675Z" fill="#0BAEE6"/>
</svg>
