<svg width="24" height="25" viewBox="0 0 24 25" fill="none" xmlns="http://www.w3.org/2000/svg">
<path fill-rule="evenodd" clip-rule="evenodd" d="M20 2C20 1.46957 19.7893 0.960859 19.4142 0.585786C19.0391 0.210714 18.5304 0 18 0H2C1.46957 0 0.960859 0.210714 0.585786 0.585786C0.210714 0.960859 0 1.46957 0 2V22C0 22.5304 0.210714 23.0391 0.585786 23.4142C0.960859 23.7893 1.46957 24 2 24H10V22H2V2H18V8H20V2Z" fill="#F8E644"/>
<path d="M4 14H10V16H4V14Z" fill="#F8E644"/>
<path d="M4 10H16V12H4V10Z" fill="#F8E644"/>
<path fill-rule="evenodd" clip-rule="evenodd" d="M16 6V8H4V6H16Z" fill="#F8E644"/>
<path fill-rule="evenodd" clip-rule="evenodd" d="M19 19L24 21V19L19 16.5V14C19 13.7348 18.8946 13.4804 18.7071 13.2929C18.5196 13.1054 18.2652 13 18 13C17.7348 13 17.4804 13.1054 17.2929 13.2929C17.1054 13.4804 17 13.7348 17 14V16.5L12 19V21L17 19V22.5L15 24V25L18 24L21 25V24L19 22.5V19Z" fill="#F8E644"/>
</svg>
