<svg width="40" height="41" viewBox="0 0 40 41" fill="none" xmlns="http://www.w3.org/2000/svg">
<path d="M39.5 20.04C39.5 30.8326 30.7686 39.58 20 39.58C9.23139 39.58 0.5 30.8326 0.5 20.04C0.5 9.2474 9.23139 0.5 20 0.5C30.7686 0.5 39.5 9.2474 39.5 20.04Z" stroke="#E9E9E9"/>
<path d="M20.0022 14.902C17.1645 14.902 14.8756 17.196 14.8756 20.04C14.8756 22.884 17.1645 25.178 20.0022 25.178C22.8399 25.178 25.1288 22.884 25.1288 20.04C25.1288 17.196 22.8399 14.902 20.0022 14.902ZM20.0022 23.3804C18.1684 23.3804 16.6693 21.8824 16.6693 20.04C16.6693 18.1977 18.164 16.6996 20.0022 16.6996C21.8405 16.6996 23.3352 18.1977 23.3352 20.04C23.3352 21.8824 21.836 23.3804 20.0022 23.3804V23.3804ZM26.5343 14.6918C26.5343 15.3581 25.9989 15.8903 25.3385 15.8903C24.6737 15.8903 24.1428 15.3537 24.1428 14.6918C24.1428 14.03 24.6782 13.4934 25.3385 13.4934C25.9989 13.4934 26.5343 14.03 26.5343 14.6918ZM29.9297 15.9081C29.8539 14.3028 29.488 12.8808 28.3146 11.7092C27.1456 10.5376 25.7267 10.1709 24.1249 10.0904C22.4741 9.99654 17.5259 9.99654 15.8751 10.0904C14.2777 10.1665 12.8589 10.5331 11.6854 11.7047C10.512 12.8763 10.1506 14.2983 10.0703 15.9037C9.97658 17.5582 9.97658 22.5173 10.0703 24.1719C10.1461 25.7772 10.512 27.1992 11.6854 28.3708C12.8589 29.5424 14.2733 29.9091 15.8751 29.9896C17.5259 30.0835 22.4741 30.0835 24.1249 29.9896C25.7267 29.9135 27.1456 29.5469 28.3146 28.3708C29.4835 27.1992 29.8494 25.7772 29.9297 24.1719C30.0234 22.5173 30.0234 17.5627 29.9297 15.9081V15.9081ZM27.797 25.9471C27.449 26.8236 26.7752 27.4988 25.8963 27.8521C24.58 28.3753 21.4568 28.2545 20.0022 28.2545C18.5477 28.2545 15.42 28.3708 14.1082 27.8521C13.2337 27.5033 12.56 26.8281 12.2075 25.9471C11.6854 24.628 11.8059 21.4978 11.8059 20.04C11.8059 18.5822 11.6899 15.4476 12.2075 14.1329C12.5555 13.2564 13.2292 12.5812 14.1082 12.2279C15.4244 11.7047 18.5477 11.8255 20.0022 11.8255C21.4568 11.8255 24.5845 11.7092 25.8963 12.2279C26.7708 12.5767 27.4445 13.2519 27.797 14.1329C28.319 15.452 28.1985 18.5822 28.1985 20.04C28.1985 21.4978 28.319 24.6325 27.797 25.9471Z" fill="white"/>
</svg>
