<svg width="30" height="20" viewBox="0 0 30 20" fill="none" xmlns="http://www.w3.org/2000/svg">
<path d="M20.625 5.83333C20.625 5.61232 20.7238 5.40036 20.8996 5.24408C21.0754 5.0878 21.3139 5 21.5625 5H25.3125C25.5611 5 25.7996 5.0878 25.9754 5.24408C26.1512 5.40036 26.25 5.61232 26.25 5.83333V7.5C26.25 7.72101 26.1512 7.93298 25.9754 8.08926C25.7996 8.24554 25.5611 8.33333 25.3125 8.33333H21.5625C21.3139 8.33333 21.0754 8.24554 20.8996 8.08926C20.7238 7.93298 20.625 7.72101 20.625 7.5V5.83333Z" fill="#0BAEE6"/>
<path d="M3.75 0C2.75544 0 1.80161 0.351189 1.09835 0.976311C0.395088 1.60143 0 2.44928 0 3.33333L0 16.6667C0 17.5507 0.395088 18.3986 1.09835 19.0237C1.80161 19.6488 2.75544 20 3.75 20H26.25C27.2446 20 28.1984 19.6488 28.9016 19.0237C29.6049 18.3986 30 17.5507 30 16.6667V3.33333C30 2.44928 29.6049 1.60143 28.9016 0.976311C28.1984 0.351189 27.2446 0 26.25 0H3.75ZM28.125 3.33333V11.6667H1.875V3.33333C1.875 2.89131 2.07254 2.46738 2.42417 2.15482C2.77581 1.84226 3.25272 1.66667 3.75 1.66667H26.25C26.7473 1.66667 27.2242 1.84226 27.5758 2.15482C27.9275 2.46738 28.125 2.89131 28.125 3.33333ZM26.25 18.3333H3.75C3.25272 18.3333 2.77581 18.1577 2.42417 17.8452C2.07254 17.5326 1.875 17.1087 1.875 16.6667V15H28.125V16.6667C28.125 17.1087 27.9275 17.5326 27.5758 17.8452C27.2242 18.1577 26.7473 18.3333 26.25 18.3333Z" fill="#0BAEE6"/>
</svg>
