<svg width="31" height="37" viewBox="0 0 31 37" fill="none" xmlns="http://www.w3.org/2000/svg">
<path d="M16.8519 10.3766V0H6.75888C5.8666 0 5.01087 0.364415 4.37993 1.01308C3.74899 1.66174 3.39453 2.54152 3.39453 3.45887V12.6301C5.3164 11.4881 7.55083 11.0294 9.7519 11.3249C11.953 11.6204 13.9979 12.6537 15.5701 14.2647C17.1423 15.8757 18.154 17.9747 18.4487 20.2366C18.7434 22.4985 18.3046 24.7972 17.2002 26.7768L23.1382 32.8817C23.6059 33.3608 23.8834 33.9644 23.9709 34.5887H26.945C27.8373 34.5887 28.693 34.2243 29.324 33.5756C29.9549 32.9269 30.3094 32.0472 30.3094 31.1298V13.8355H20.2163C19.324 13.8355 18.4683 13.4711 17.8373 12.8224C17.2064 12.1737 16.8519 11.294 16.8519 10.3766Z" fill="#64CE96"/>
<path d="M20.1673 35.9374C20.2828 36.0648 20.422 36.167 20.5768 36.2379C20.7316 36.3088 20.8986 36.3469 21.068 36.35C21.2374 36.3531 21.4057 36.321 21.5628 36.2558C21.7199 36.1905 21.8626 36.0934 21.9824 35.9703C22.1022 35.8471 22.1966 35.7004 22.2601 35.5389C22.3235 35.3774 22.3547 35.2044 22.3517 35.0302C22.3487 34.8561 22.3116 34.6843 22.2427 34.5252C22.1737 34.3661 22.0743 34.2229 21.9504 34.1042L15.0332 26.991C16.2148 25.4637 16.8565 23.5691 16.8534 21.6176C16.8559 19.3535 15.9918 17.1792 14.4479 15.5646C13.6658 14.7422 12.7315 14.0891 11.7002 13.6435C10.6688 13.198 9.56118 12.9692 8.44248 12.9705C6.62218 12.9677 4.85058 13.5748 3.39595 14.6999C1.62563 16.0517 0.44249 18.0642 0.10131 20.304C-0.239869 22.5438 0.288206 24.8318 1.57182 26.6753C2.85543 28.5187 4.7919 29.7702 6.96421 30.1602C9.13653 30.5501 11.3709 30.0474 13.1862 28.7602L20.1673 35.9374ZM8.44248 15.5646C9.21565 15.5646 9.98126 15.7212 10.6956 16.0254C11.4099 16.3296 12.0589 16.7754 12.6057 17.3375C13.1524 17.8996 13.5861 18.5669 13.8819 19.3012C14.1778 20.0356 14.3301 20.8227 14.3301 21.6176C14.3301 22.4125 14.1778 23.1996 13.8819 23.934C13.5861 24.6684 13.1524 25.3357 12.6057 25.8978C12.0589 26.4598 11.4099 26.9057 10.6956 27.2099C9.98126 27.5141 9.21565 27.6707 8.44248 27.6707C6.88099 27.6707 5.38345 27.0329 4.27931 25.8978C3.17516 24.7626 2.55486 23.223 2.55486 21.6176C2.55486 20.0123 3.17516 18.4727 4.27931 17.3375C5.38345 16.2023 6.88099 15.5646 8.44248 15.5646Z" fill="#64CE96"/>
<path d="M19.3779 10.3781V0.866211L29.471 11.2428H20.219C19.9959 11.2428 19.782 11.1517 19.6243 10.9895C19.4665 10.8274 19.3779 10.6074 19.3779 10.3781Z" fill="#64CE96"/>
</svg>
