<svg width="50" height="50" viewBox="0 0 50 50" fill="none" xmlns="http://www.w3.org/2000/svg">
<path d="M47.5 22.2222H42.5V5.55556H45V0H5V5.55556H7.5V22.2222H2.5C1.83696 22.2222 1.20107 22.5149 0.732233 23.0358C0.263392 23.5567 0 24.2633 0 25V50H50V25C50 24.2633 49.7366 23.5567 49.2678 23.0358C48.7989 22.5149 48.163 22.2222 47.5 22.2222ZM30 44.4444V33.3333H20V44.4444H12.5V5.55556H37.5V44.4444H30Z" fill="#0BAEE6"/>
<path d="M17.5 11.1123H22.5V16.6679H17.5V11.1123ZM27.5 11.1123H32.5V16.6679H27.5V11.1123ZM17.5 22.2234H22.5V27.779H17.5V22.2234ZM27.5 22.2234H32.5V27.779H27.5V22.2234Z" fill="#0BAEE6"/>
</svg>
